<svg id="Capa_1" enable-background="new 0 0 512 512" height="512" viewBox="0 0 512 512" width="512" xmlns="http://www.w3.org/2000/svg"><g><path d="m113.088 170.519h42.62v40.521h-42.62z" fill="#b5dcff"/><path d="m113.088 170.519h21.31v40.521h-21.31z" fill="#8bcaff"/><path d="m389.287 226.492-65.711-24.725-11.656 5.644h-258.562c-6.152 0-11.139 4.987-11.139 11.139v163.227l11.963 10.575h335.106l7.859-10.575v-143.071z" fill="#6b7ed9"/><g><path d="m78.962 218.551c0-6.152 4.987-11.139 11.139-11.139h-36.743c-6.152 0-11.139 4.987-11.139 11.139v163.227l11.963 10.575h36.743l-11.963-10.575z" fill="#4d66d2"/></g><g><path d="m197.205 172.729h-125.614c-16.196 0-29.372-13.176-29.372-29.372v-71.918c0-16.196 13.176-29.372 29.372-29.372h125.615c16.196 0 29.372 13.176 29.372 29.372v71.918c0 16.195-13.176 29.372-29.373 29.372z" fill="#dbedff"/></g><path d="m78.962 143.356v-71.917c0-16.196 13.176-29.372 29.372-29.372h-36.744c-16.196 0-29.372 13.176-29.372 29.372v71.918c0 16.196 13.176 29.372 29.372 29.372h36.743c-16.195 0-29.371-13.177-29.371-29.373z" fill="#b5dcff"/><circle cx="392.6" cy="119.4" fill="#60b9fe" r="119.4"/><path d="m309.943 119.4c0-59.695 43.808-109.156 101.028-117.993-5.988-.925-12.123-1.407-18.371-1.407-65.943 0-119.4 53.457-119.4 119.4s53.457 119.4 119.4 119.4c6.248 0 12.383-.482 18.372-1.407-57.221-8.837-101.029-58.298-101.029-117.993z" fill="#1ca8ff"/><path d="m353.739 85.641v86.605c0 3.989 3.074 7.467 7.061 7.587 4.126.124 7.509-3.184 7.509-7.282v-95.973c-.009-.006-.009-.006-.018-.012l-11.207 4.235c-2.013.761-3.345 2.688-3.345 4.84z" fill="#ff4fb9"/><ellipse cx="424.827" cy="141.691" fill="#ff72c7" rx="24.171" ry="17.606"/><path d="m423.661 141.691c0-6.691 5.124-12.509 12.669-15.488-3.42-1.351-7.338-2.118-11.502-2.118-13.349 0-24.171 7.882-24.171 17.606 0 9.723 10.822 17.606 24.171 17.606 4.164 0 8.082-.767 11.502-2.118-7.546-2.979-12.669-8.798-12.669-15.488z" fill="#ff4fb9"/><path d="m434.428 54.243v87.142c0 3.989 3.074 7.467 7.061 7.587 4.126.124 7.509-3.184 7.509-7.282v-86.965c0-2.894-2.894-4.894-5.601-3.871z" fill="#ff72c7"/><path d="m448.998 78.243-81.661 30.86v-32.177l76.445-28.889c2.521-.953 5.215.91 5.215 3.604v26.602z" fill="#ff72c7"/><path d="m389.287 68.631-21.95 8.295v32.178l21.95-8.295z" fill="#ff4fb9"/><ellipse cx="344.138" cy="172.551" fill="#ff72c7" rx="24.171" ry="17.606"/><path d="m342.971 172.551c0-6.691 5.124-12.509 12.669-15.488-3.42-1.351-7.338-2.118-11.502-2.118-13.349 0-24.171 7.882-24.171 17.606s10.822 17.606 24.171 17.606c4.164 0 8.082-.767 11.502-2.118-7.545-2.979-12.669-8.797-12.669-15.488z" fill="#ff4fb9"/><g fill="#dbedff"><path d="m100.11 249.991h-13.959c-4.267 0-7.726 3.459-7.726 7.726s3.459 7.726 7.726 7.726h13.959c4.267 0 7.726-3.459 7.726-7.726 0-4.266-3.459-7.726-7.726-7.726z"/><path d="m141.377 249.991h-13.958c-4.267 0-7.726 3.459-7.726 7.726s3.459 7.726 7.726 7.726h13.958c4.267 0 7.726-3.459 7.726-7.726 0-4.266-3.459-7.726-7.726-7.726z"/><path d="m182.645 249.991h-13.958c-4.267 0-7.726 3.459-7.726 7.726s3.459 7.726 7.726 7.726h13.958c4.267 0 7.726-3.459 7.726-7.726 0-4.266-3.459-7.726-7.726-7.726z"/><path d="m100.11 286.65h-13.959c-4.267 0-7.726 3.459-7.726 7.726s3.459 7.726 7.726 7.726h13.959c4.267 0 7.726-3.459 7.726-7.726s-3.459-7.726-7.726-7.726z"/><path d="m141.377 286.65h-13.958c-4.267 0-7.726 3.459-7.726 7.726s3.459 7.726 7.726 7.726h13.958c4.267 0 7.726-3.459 7.726-7.726s-3.459-7.726-7.726-7.726z"/><path d="m182.645 286.65h-13.958c-4.267 0-7.726 3.459-7.726 7.726s3.459 7.726 7.726 7.726h13.958c4.267 0 7.726-3.459 7.726-7.726s-3.459-7.726-7.726-7.726z"/><path d="m100.11 323.308h-13.959c-4.267 0-7.726 3.459-7.726 7.726s3.459 7.726 7.726 7.726h13.959c4.267 0 7.726-3.459 7.726-7.726s-3.459-7.726-7.726-7.726z"/><path d="m141.377 323.308h-13.958c-4.267 0-7.726 3.459-7.726 7.726s3.459 7.726 7.726 7.726h13.958c4.267 0 7.726-3.459 7.726-7.726s-3.459-7.726-7.726-7.726z"/><path d="m182.645 323.308h-13.958c-4.267 0-7.726 3.459-7.726 7.726s3.459 7.726 7.726 7.726h13.958c4.267 0 7.726-3.459 7.726-7.726s-3.459-7.726-7.726-7.726z"/></g><path d="m292.72 287.743v-30.586c5.759 2.565 9.737 7.885 9.737 14.036 0 4.267 3.459 7.726 7.726 7.726s7.726-3.459 7.726-7.726c0-14.647-10.757-26.956-25.19-30.253v-.893c0-4.267-3.459-7.726-7.726-7.726s-7.726 3.459-7.726 7.726v.893c-14.433 3.297-25.189 15.606-25.189 30.253s10.756 26.956 25.189 30.253v30.585c-5.759-2.565-9.737-7.885-9.737-14.036 0-4.267-3.459-7.726-7.726-7.726s-7.726 3.459-7.726 7.726c0 14.647 10.756 26.956 25.189 30.253v.893c0 4.267 3.459 7.726 7.726 7.726s7.726-3.459 7.726-7.726v-.893c14.433-3.297 25.19-15.606 25.19-30.253.001-14.646-10.756-26.955-25.189-30.252zm-25.19-16.549c0-6.151 3.978-11.471 9.737-14.036v28.072c-5.759-2.566-9.737-7.885-9.737-14.036zm25.19 60.838v-28.072c5.759 2.565 9.737 7.885 9.737 14.036 0 6.152-3.978 11.471-9.737 14.036z" fill="#ffd500"/><path d="m193.028 72.972h-117.26c-1.461 0-2.645 1.184-2.645 2.644v63.562c0 1.461 1.184 2.644 2.645 2.644h117.259c1.461 0 2.644-1.184 2.644-2.644v-63.562c.001-1.46-1.183-2.644-2.643-2.644z" fill="#ff636e"/><path d="m109.867 139.179v-63.563c0-1.46 1.184-2.644 2.645-2.644h-36.744c-1.461 0-2.645 1.184-2.645 2.644v63.562c0 1.461 1.184 2.644 2.645 2.644h36.743c-1.46.001-2.644-1.183-2.644-2.643z" fill="#ff4654"/><path d="m405.876 381.778h-120.883l-65.311 4.908-65.312-4.908h-90.21c-6.449 2.452-11.04 8.673-11.04 15.982v77.425l6.622 6.794h351.915l10.953-7.749v-75.719c0-9.241-7.492-16.733-16.734-16.733z" fill="#a5afe7"/><path d="m53.498 398.512c0-9.242 7.492-16.734 16.734-16.734h-36.744c-9.242 0-16.734 7.492-16.734 16.734v75.719l7.552 7.749h36.743l-7.552-7.749v-75.719z" fill="#8896e0"/><path d="m189.053 381.778v17.304c0 9.263 7.509 16.771 16.771 16.771h62.398c9.263 0 16.771-7.509 16.771-16.771v-17.304z" fill="#8896e0"/><path d="m191.114 399.082v-17.304h-36.743v17.304c0 9.263 7.509 16.771 16.771 16.771h36.743c-9.263 0-16.771-7.508-16.771-16.771z" fill="#6b7ed9"/><path d="m430.264 474.231h-421.164c-5.026 0-9.1 4.074-9.1 9.1v19.569c0 5.026 4.074 9.1 9.1 9.1h421.164c5.026 0 9.1-4.074 9.1-9.1v-19.569c0-5.026-4.074-9.1-9.1-9.1z" fill="#dbedff"/><path d="m36.743 502.9v-19.569c0-5.026 4.074-9.1 9.1-9.1h-36.743c-5.026 0-9.1 4.074-9.1 9.1v19.569c0 5.026 4.074 9.1 9.1 9.1h36.743c-5.025 0-9.1-4.075-9.1-9.1z" fill="#b5dcff"/></g></svg>