<?xml version="1.0" encoding="UTF-8" standalone="no" ?>
<!DOCTYPE svg PUBLIC "-//W3C//DTD SVG 1.1//EN" "http://www.w3.org/Graphics/SVG/1.1/DTD/svg11.dtd">
<svg xmlns="http://www.w3.org/2000/svg" xmlns:xlink="http://www.w3.org/1999/xlink" version="1.1" width="720" height="540" viewBox="0 0 800 600" xml:space="preserve">
<desc>Created with Fabric.js 3.6.3</desc>
<defs>
</defs>
<g transform="matrix(0.42 0 0 0.42 449.8 324.91)"  >
<ellipse style="stroke: rgb(0,0,0); stroke-width: 0.1; stroke-dasharray: none; stroke-linecap: butt; stroke-dashoffset: 0; stroke-linejoin: miter; stroke-miterlimit: 4; fill: rgb(30,139,195); fill-rule: nonzero; opacity: 1;"  cx="0" cy="0" rx="360" ry="180" />
</g>
<g transform="matrix(0.2 0 0 0.2 526.81 259.86)"  >
<filter id="SVGID_38" y="-21%" height="142%" x="-21%" width="142%" >
	<feGaussianBlur in="SourceAlpha" stdDeviation="2"></feGaussianBlur>
	<feOffset dx="5" dy="6" result="oBlur" ></feOffset>
	<feFlood flood-color="rgb(0,0,0)" flood-opacity="1"/>
	<feComposite in2="oBlur" operator="in" />
	<feMerge>
		<feMergeNode></feMergeNode>
		<feMergeNode in="SourceGraphic"></feMergeNode>
	</feMerge>
</filter>
<g style="filter: url(#SVGID_38);"   >
		<g transform="matrix(1 0 0 1 -187.95 -211.75)" id="Layer_1"  >
<path style="stroke: rgb(0,0,0); stroke-width: 0.1; stroke-dasharray: none; stroke-linecap: butt; stroke-dashoffset: 0; stroke-linejoin: miter; stroke-miterlimit: 4; fill: rgb(249,185,168); fill-rule: nonzero; opacity: 1;"  transform=" translate(-312.05, -288.25)" d="M 309 263.9 c 0 0 -7.7 2.8 0.8 6.4 c 0 0 8.1 4.6 13.4 8.6 c 0 0.1 0.9 1.1 -0.7 1.2 l 0 0 c -5.9 -2.4 -17.4 -5.5 -33.3 -2.6 c 0 0 -10.1 2.3 -8.9 16.5 c 0.8 10 8.1 14.6 15.7 13.6 c 7.6 -1.1 11.1 -1.1 19.3 0.1 c 7.6 1.1 17.6 6.9 25.4 4.2 l 3.2 -28.3 C 343.9 283.6 328.3 266.5 309 263.9 z" stroke-linecap="round" />
</g>
		<g transform="matrix(1 0 0 1 86.29 388.57)" id="Layer_1"  >
<path style="stroke: rgb(0,0,0); stroke-width: 0.1; stroke-dasharray: none; stroke-linecap: butt; stroke-dashoffset: 0; stroke-linejoin: miter; stroke-miterlimit: 4; fill: rgb(90,116,183); fill-rule: nonzero; opacity: 1;"  transform=" translate(-586.29, -888.57)" d="M 541.3 896.6 c 7.1 -7.3 35 -21.9 38.2 -24.8 c 3.2 -2.9 0.5 -15.7 0.5 -15.7 l 50.5 -5 c 8 25.8 5 50 5 50 c -29.7 13.4 -77.6 26.5 -89.4 24.8 C 534.4 924.2 534.2 903.9 541.3 896.6 z" stroke-linecap="round" />
</g>
		<g transform="matrix(1 0 0 1 87.3 409.77)" id="Layer_1"  >
<path style="stroke: rgb(0,0,0); stroke-width: 0.1; stroke-dasharray: none; stroke-linecap: butt; stroke-dashoffset: 0; stroke-linejoin: miter; stroke-miterlimit: 4; fill: rgb(89,85,157); fill-rule: nonzero; opacity: 1;"  transform=" translate(-587.3, -909.77)" d="M 538.6 920.1 c 50.4 -5.2 85.9 -20.8 97.4 -26.5 c -0.1 4.6 -0.5 7.4 -0.5 7.4 c -29.7 13.4 -77.6 26.5 -89.4 24.8 C 542.6 925.4 540.2 923.2 538.6 920.1 z" stroke-linecap="round" />
</g>
		<g transform="matrix(1 0 0 1 -27.96 375.25)" id="Layer_1"  >
<path style="stroke: rgb(0,0,0); stroke-width: 0.1; stroke-dasharray: none; stroke-linecap: butt; stroke-dashoffset: 0; stroke-linejoin: miter; stroke-miterlimit: 4; fill: rgb(90,116,183); fill-rule: nonzero; opacity: 1;"  transform=" translate(-472.04, -875.25)" d="M 427.2 879.6 c 7.6 -6.8 36.5 -19.2 39.9 -21.9 c 3.4 -2.7 1.7 -15.6 1.7 -15.6 l 50.8 -1.3 c 6.1 26.3 1.4 50.3 1.4 50.3 c -30.6 11.2 -79.4 20.7 -91 18.2 C 418.3 906.7 419.6 886.4 427.2 879.6 z" stroke-linecap="round" />
</g>
		<g transform="matrix(1 0 0 1 -27.75 396.7)" id="Layer_1"  >
<path style="stroke: rgb(0,0,0); stroke-width: 0.1; stroke-dasharray: none; stroke-linecap: butt; stroke-dashoffset: 0; stroke-linejoin: miter; stroke-miterlimit: 4; fill: rgb(89,85,157); fill-rule: nonzero; opacity: 1;"  transform=" translate(-472.25, -896.7)" d="M 422.7 902.9 c 50.6 -1.5 87.2 -14.4 99.1 -19.2 c -0.5 4.6 -1 7.4 -1 7.4 c -30.6 11.2 -79.4 20.7 -91 18.2 C 426.4 908.4 424.1 906 422.7 902.9 z" stroke-linecap="round" />
</g>
		<g transform="matrix(1 0 0 1 -153.38 -201.4)" id="Layer_1"  >
<path style="stroke: rgb(0,0,0); stroke-width: 0.1; stroke-dasharray: none; stroke-linecap: butt; stroke-dashoffset: 0; stroke-linejoin: miter; stroke-miterlimit: 4; fill: rgb(228,229,230); fill-rule: nonzero; opacity: 1;"  transform=" translate(-346.62, -298.6)" d="M 349.6 315.8 l -11.2 -2.1 c 0 0 -3.1 -17.9 5.3 -32.3 l 11.7 1 L 349.6 315.8 z" stroke-linecap="round" />
</g>
		<g transform="matrix(1 0 0 1 -75.79 -240.95)" id="Layer_1"  >
<path style="stroke: rgb(0,0,0); stroke-width: 0.1; stroke-dasharray: none; stroke-linecap: butt; stroke-dashoffset: 0; stroke-linejoin: miter; stroke-miterlimit: 4; fill: rgb(80,88,145); fill-rule: nonzero; opacity: 1;"  transform=" translate(-424.21, -259.05)" d="M 474.9 176.1 c 0 0 -17.6 56.1 -30.3 115.3 l -91.5 -10.5 c 0 0 -11.3 9.8 -8.1 35.3 l 128.3 25.8 L 504 218.8 L 474.9 176.1 z" stroke-linecap="round" />
</g>
		<g transform="matrix(1 0 0 1 48.2 -348.45)" id="Layer_1"  >
<polygon style="stroke: rgb(0,0,0); stroke-width: 0.1; stroke-dasharray: none; stroke-linecap: butt; stroke-dashoffset: 0; stroke-linejoin: miter; stroke-miterlimit: 4; fill: rgb(187,188,190); fill-rule: nonzero; opacity: 1;"  points="-30,0.35 8.6,-9.55 30,-6.95 21,5.95 -23.8,9.55 " />
</g>
		<g transform="matrix(1 0 0 1 48.37 -333.35)" id="Layer_1"  >
<path style="stroke: rgb(0,0,0); stroke-width: 0.1; stroke-dasharray: none; stroke-linecap: butt; stroke-dashoffset: 0; stroke-linejoin: miter; stroke-miterlimit: 4; fill: rgb(246,163,168); fill-rule: nonzero; opacity: 1;"  transform=" translate(-548.37, -166.65)" d="M 589.2 158.8 c -11.7 -4.8 -12.7 -8.4 -12.7 -8.4 c -3.2 -12.6 -3.8 -24.1 -3.8 -24.1 l -53.4 11.3 c 1.1 4 1.1 10.6 0.7 17.4 c 0.3 4.5 -4.6 4.2 -4.6 4.2 l -8.2 5.8 l -3.2 24 l 41.8 18 l 34.1 -17.8 C 579.8 189.2 600.9 163.6 589.2 158.8 z" stroke-linecap="round" />
</g>
		<g transform="matrix(1 0 0 1 10.57 128.54)" id="Layer_1"  >
<path style="stroke: rgb(0,0,0); stroke-width: 0.1; stroke-dasharray: none; stroke-linecap: butt; stroke-dashoffset: 0; stroke-linejoin: miter; stroke-miterlimit: 4; fill: rgb(63,73,122); fill-rule: nonzero; opacity: 1;"  transform=" translate(-510.57, -628.54)" d="M 475.5 423.4 c 0 0 -17.3 227.5 -15.3 418.4 c 0 0 26.3 18.8 66.2 2.9 c 0 0 4.1 -256.2 18.1 -360.5 l 16.6 -37.6 l -7.8 -23.6 L 480.7 406 L 475.5 423.4 z" stroke-linecap="round" />
</g>
		<g transform="matrix(1 0 0 1 89.95 139.43)" id="Layer_1"  >
<path style="stroke: rgb(0,0,0); stroke-width: 0.1; stroke-dasharray: none; stroke-linecap: butt; stroke-dashoffset: 0; stroke-linejoin: miter; stroke-miterlimit: 4; fill: rgb(63,73,122); fill-rule: nonzero; opacity: 1;"  transform=" translate(-589.95, -639.43)" d="M 622.5 415 c 0 0 2.4 192 3 217.7 c 0.6 25.7 12.7 216.2 12.7 216.2 s -17.3 23.2 -67.4 11.8 l -14.6 -206.1 l -12.6 -178.1 l -1.9 -34.1 L 622.5 415 z" stroke-linecap="round" />
</g>
		<g transform="matrix(1 0 0 1 28.25 -81.33)" id="Layer_1"  >
<path style="stroke: rgb(0,0,0); stroke-width: 0.1; stroke-dasharray: none; stroke-linecap: butt; stroke-dashoffset: 0; stroke-linejoin: miter; stroke-miterlimit: 4; fill: rgb(108,76,158); fill-rule: nonzero; opacity: 1;"  transform=" translate(-528.25, -418.67)" d="M 559.3 430.1 c 0 0 -32.3 5.9 -62.1 -8 l 4.2 -16.1 l 57.9 7.7 V 430.1 z" stroke-linecap="round" />
</g>
		<g transform="matrix(1 0 0 1 43.75 -214.59)" id="Layer_1"  >
<path style="stroke: rgb(0,0,0); stroke-width: 0.1; stroke-dasharray: none; stroke-linecap: butt; stroke-dashoffset: 0; stroke-linejoin: miter; stroke-miterlimit: 4; fill: rgb(228,229,230); fill-rule: nonzero; opacity: 1;"  transform=" translate(-543.75, -285.41)" d="M 583 152.5 l -5.1 2.7 c -64.4 48.1 -58.2 3.3 -58.2 3.3 l -4.3 0.6 L 503.5 172 l -10.2 -2.1 l 9.5 238.7 c 32.4 14.3 57.6 8.6 57.6 8.6 l 17.8 -64.3 l 16 -182.9 L 583 152.5 z" stroke-linecap="round" />
</g>
		<g transform="matrix(1 0 0 1 37.5 -315.4)" id="Layer_1"  >
<polygon style="stroke: rgb(0,0,0); stroke-width: 0.1; stroke-dasharray: none; stroke-linecap: butt; stroke-dashoffset: 0; stroke-linejoin: miter; stroke-miterlimit: 4; fill: rgb(108,76,158); fill-rule: nonzero; opacity: 1;"  points="1.3,-11.9 -13.5,-0.3 -7,10.5 5.5,11.9 13.5,3.3 " />
</g>
		<g transform="matrix(1 0 0 1 32.45 -213.4)" id="Layer_1"  >
<polygon style="stroke: rgb(0,0,0); stroke-width: 0.1; stroke-dasharray: none; stroke-linecap: butt; stroke-dashoffset: 0; stroke-linejoin: miter; stroke-miterlimit: 4; fill: rgb(108,76,158); fill-rule: nonzero; opacity: 1;"  points="-1.95,-91.5 -15.85,68.1 -8.85,91.5 15.85,67.7 10.55,-90.1 " />
</g>
		<g transform="matrix(1 0 0 1 82.5 -193.25)" id="Layer_1"  >
<path style="stroke: rgb(0,0,0); stroke-width: 0.1; stroke-dasharray: none; stroke-linecap: butt; stroke-dashoffset: 0; stroke-linejoin: miter; stroke-miterlimit: 4; fill: rgb(80,88,145); fill-rule: nonzero; opacity: 1;"  transform=" translate(-582.5, -306.75)" d="M 639.1 181.4 c 0 0 -10 -7 -57.1 -27.3 c 0 0 -35 85.9 -52.3 163.6 l -3.8 99.6 l 29 42.1 c 0 0 64 -7.2 74.1 -15.1 C 628.9 444.3 624.2 271.8 639.1 181.4 z" stroke-linecap="round" />
</g>
		<g transform="matrix(1 0 0 1 1.59 -195.6)" id="Layer_1"  >
<path style="stroke: rgb(0,0,0); stroke-width: 0.1; stroke-dasharray: none; stroke-linecap: butt; stroke-dashoffset: 0; stroke-linejoin: miter; stroke-miterlimit: 4; fill: rgb(80,88,145); fill-rule: nonzero; opacity: 1;"  transform=" translate(-501.59, -304.4)" d="M 532.5 328.1 l -2.8 -10.4 c -5.1 -76.8 -10.2 -161 -10.2 -161 l -44.5 19.4 c -11.1 120.4 -5.7 259.8 -5.7 259.8 c 10.1 7.9 38.6 16.2 38.6 16.2 l 13.3 -35.1 l 14 -41.1 L 532.5 328.1 z" stroke-linecap="round" />
</g>
		<g transform="matrix(1 0 0 1 63.15 -331)" id="Layer_1"  >
<polygon style="stroke: rgb(0,0,0); stroke-width: 0.1; stroke-dasharray: none; stroke-linecap: butt; stroke-dashoffset: 0; stroke-linejoin: miter; stroke-miterlimit: 4; fill: rgb(240,240,240); fill-rule: nonzero; opacity: 1;"  points="15.05,-24.4 24.35,-13.9 -11.45,24.4 -24.35,3.7 " />
</g>
		<g transform="matrix(1 0 0 1 26.6 -328.05)" id="Layer_1"  >
<polygon style="stroke: rgb(0,0,0); stroke-width: 0.1; stroke-dasharray: none; stroke-linecap: butt; stroke-dashoffset: 0; stroke-linejoin: miter; stroke-miterlimit: 4; fill: rgb(240,240,240); fill-rule: nonzero; opacity: 1;"  points="-8.4,-20.05 -12.2,-13.45 -6.4,20.05 12.2,0.75 " />
</g>
		<g transform="matrix(1 0 0 1 45.97 -408.69)" id="Layer_1"  >
<path style="stroke: rgb(0,0,0); stroke-width: 0.1; stroke-dasharray: none; stroke-linecap: butt; stroke-dashoffset: 0; stroke-linejoin: miter; stroke-miterlimit: 4; fill: rgb(249,185,168); fill-rule: nonzero; opacity: 1;"  transform=" translate(-545.97, -91.31)" d="M 593.5 113.2 c 0 0 -8.4 41.6 -49.8 41.7 c -47.8 0.2 -52 -57.5 -46.6 -84.6 c 5.1 -25.4 37.2 -55.6 70.7 -36.6 C 593 48 602.1 75.1 593.5 113.2 z" stroke-linecap="round" />
</g>
		<g transform="matrix(1 0 0 1 -2.9 -104.4)" id="Layer_1"  >
<linearGradient id="SVGID_SVGID_1__34" gradientUnits="userSpaceOnUse" gradientTransform="matrix(1 0 0 1 -497.1 -395.6)"  x1="437.8051" y1="395.6055" x2="556.4101" y2="395.6055">
<stop offset="0%" style="stop-color:rgb(206,212,232);stop-opacity: 1"/>
<stop offset="100%" style="stop-color:rgb(240,240,243);stop-opacity: 1"/>
</linearGradient>
<polygon style="stroke: rgb(0,0,0); stroke-width: 0.1; stroke-dasharray: none; stroke-linecap: butt; stroke-dashoffset: 0; stroke-linejoin: miter; stroke-miterlimit: 4; fill: url(#SVGID_SVGID_1__34); fill-rule: nonzero; opacity: 1;"  points="59.3,53.1 -30.9,73.4 -59.3,-53.1 30.9,-73.4 " />
</g>
		<g transform="matrix(1 0 0 1 37.5 -92.46)" id="Layer_1"  >
<path style="stroke: rgb(0,0,0); stroke-width: 0.1; stroke-dasharray: none; stroke-linecap: butt; stroke-dashoffset: 0; stroke-linejoin: miter; stroke-miterlimit: 4; fill: rgb(249,185,168); fill-rule: nonzero; opacity: 1;"  transform=" translate(-537.5, -407.54)" d="M 571 410.2 c -3.1 -21.7 -13.9 -25.5 -13.9 -25.5 s -15.3 -0.9 -26.8 0.6 c -11.5 1.5 -12.9 5.2 -12.9 5.2 s -0.8 6.1 8.3 4.2 c 9.2 -2 12.4 1.8 12.4 1.8 s -9.4 7.3 -28.9 11.6 c 0 0 -9.5 6 -2.8 14.6 c 6.7 8.6 11.3 8.9 23.7 7 c 12.4 -1.8 18.6 -3.5 36.4 -17.7 C 568.1 411.4 569.5 410.8 571 410.2 z" stroke-linecap="round" />
</g>
		<g transform="matrix(1 0 0 1 68.4 -104.35)" id="Layer_1"  >
<path style="stroke: rgb(0,0,0); stroke-width: 0.1; stroke-dasharray: none; stroke-linecap: butt; stroke-dashoffset: 0; stroke-linejoin: miter; stroke-miterlimit: 4; fill: rgb(228,229,230); fill-rule: nonzero; opacity: 1;"  transform=" translate(-568.4, -395.65)" d="M 581.7 410.9 l -10.5 4.5 c 0 0 -13.9 -15.1 -16.1 -33.7 l 10.2 -5.8 L 581.7 410.9 z" stroke-linecap="round" />
</g>
		<g transform="matrix(1 0 0 1 129.53 -202.7)" id="Layer_1"  >
<path style="stroke: rgb(0,0,0); stroke-width: 0.1; stroke-dasharray: none; stroke-linecap: butt; stroke-dashoffset: 0; stroke-linejoin: miter; stroke-miterlimit: 4; fill: rgb(80,88,145); fill-rule: nonzero; opacity: 1;"  transform=" translate(-629.53, -297.3)" d="M 696.6 323.1 l -30.7 -95 c -11.4 -40.3 -26.8 -46.7 -26.8 -46.7 c -41.2 15.2 -29.7 60 -29.7 60 l 36.1 78.4 l -83.9 56.3 c 0 0 2 20.2 17.8 37.1 l 109.7 -69.4 C 696 339.4 699.1 330.9 696.6 323.1 z" stroke-linecap="round" />
</g>
		<g transform="matrix(1 0 0 1 44.78 -417.16)" id="Layer_1"  >
<path style="stroke: rgb(0,0,0); stroke-width: 0.1; stroke-dasharray: none; stroke-linecap: butt; stroke-dashoffset: 0; stroke-linejoin: miter; stroke-miterlimit: 4; fill: rgb(182,77,80); fill-rule: nonzero; opacity: 1;"  transform=" translate(-544.78, -82.84)" d="M 589.3 42.6 c -0.1 -0.1 -0.2 -0.2 -0.2 -0.2 c -11.8 -12.1 -28.4 -18.4 -45.3 -16.9 c -4.1 0.4 -8.2 1.2 -12.2 2.6 c -1.7 0.6 -3.4 1.3 -5.1 2 c -24.3 9.1 -36 -2.3 -36 -2.3 c -16.6 25.1 -5.8 44.4 0.9 52.6 c 0.4 0.7 3 4.7 4.1 4.3 c 0.5 -0.2 19.9 -8.2 60.9 0.1 c 0 0 7.2 19 3.1 35.1 c 0 0 8.1 0.9 10 -1.5 c 0 0 3 -12.6 2.2 -20.9 c 0 0 14.1 -3.3 10.3 15.5 c 0 0 -2.2 11.6 -9.6 13.6 l 6.7 13.8 c 3.4 -1.8 6.2 -4.1 7 -4.8 c 7.3 -6.9 12.8 -13.9 16.4 -23.4 c 2.8 -7.5 4.9 -15.5 5.3 -23.5 C 608.5 71.9 600.8 54.5 589.3 42.6 z" stroke-linecap="round" />
</g>
</g>
</g>
<g transform="matrix(0.2 0 0 0.2 395.56 258.89)"  >
<g style=""   >
		<g transform="matrix(1 0 0 1 -155.35 59.4)" id="Layer_1"  >
<polygon style="stroke: rgb(0,0,0); stroke-width: 0.1; stroke-dasharray: none; stroke-linecap: butt; stroke-dashoffset: 0; stroke-linejoin: miter; stroke-miterlimit: 4; fill: rgb(204,204,204); fill-rule: nonzero; opacity: 0.5;"  points="-197.85,346.1 197.85,115.1 197.85,-346.1 -197.85,-115.1 " />
</g>
		<g transform="matrix(1 0 0 1 222.45 -188.65)" id="Layer_1"  >
<polygon style="stroke: rgb(0,0,0); stroke-width: 0.1; stroke-dasharray: none; stroke-linecap: butt; stroke-dashoffset: 0; stroke-linejoin: miter; stroke-miterlimit: 4; fill: rgb(204,204,204); fill-rule: nonzero; opacity: 1;"  points="-130.75,216.85 130.75,64.25 130.75,-216.85 -130.75,-64.15 " />
</g>
		<g transform="matrix(1 0 0 1 -285.85 15.2)" id="Layer_1"  >
<polygon style="stroke: rgb(0,0,0); stroke-width: 0.1; stroke-dasharray: none; stroke-linecap: butt; stroke-dashoffset: 0; stroke-linejoin: miter; stroke-miterlimit: 4; fill: rgb(255,255,255); fill-rule: nonzero; opacity: 1;"  points="-28.95,64.3 28.55,29.2 28.95,-64.3 -28.95,-28.9 " />
</g>
		<g transform="matrix(1 0 0 1 -300.7 105.4)" id="Layer_1"  >
<polygon style="stroke: rgb(0,0,0); stroke-width: 0.1; stroke-dasharray: none; stroke-linecap: butt; stroke-dashoffset: 0; stroke-linejoin: miter; stroke-miterlimit: 4; fill: rgb(255,255,255); fill-rule: nonzero; opacity: 1;"  points="-14.1,20.9 14,3.8 14.1,-20.9 -14.1,-3.7 " />
</g>
		<g transform="matrix(1 0 0 1 -215.8 -51.85)" id="Layer_1"  >
<path style="stroke: rgb(0,0,0); stroke-width: 0.1; stroke-dasharray: none; stroke-linecap: butt; stroke-dashoffset: 0; stroke-linejoin: miter; stroke-miterlimit: 4; fill: rgb(255,255,255); fill-rule: nonzero; opacity: 1;"  transform=" translate(-284.2, -448.15)" d="M 291 428.1 l -13.4 8.1 c -3.8 2.3 -6.9 11.4 -7 20.2 c 0 8.9 3 14.2 6.8 11.8 l 13.4 -8.1 c 3.8 -2.3 6.9 -11.4 7 -20.2 C 297.8 431 294.8 425.7 291 428.1 z" stroke-linecap="round" />
</g>
		<g transform="matrix(1 0 0 1 -175.65 -76.3)" id="Layer_1"  >
<polygon style="stroke: rgb(0,0,0); stroke-width: 0.1; stroke-dasharray: none; stroke-linecap: butt; stroke-dashoffset: 0; stroke-linejoin: miter; stroke-miterlimit: 4; fill: rgb(255,255,255); fill-rule: nonzero; opacity: 1;"  points="-13.65,24.3 13.45,7.8 13.65,-24.3 -13.45,-7.8 " />
</g>
		<g transform="matrix(1 0 0 1 -140.35 -97.9)" id="Layer_1"  >
<polygon style="stroke: rgb(0,0,0); stroke-width: 0.1; stroke-dasharray: none; stroke-linecap: butt; stroke-dashoffset: 0; stroke-linejoin: miter; stroke-miterlimit: 4; fill: rgb(255,255,255); fill-rule: nonzero; opacity: 1;"  points="-13.65,24.3 13.55,7.8 13.65,-24.3 -13.45,-7.7 " />
</g>
		<g transform="matrix(1 0 0 1 -105 -119.4)" id="Layer_1"  >
<polygon style="stroke: rgb(0,0,0); stroke-width: 0.1; stroke-dasharray: none; stroke-linecap: butt; stroke-dashoffset: 0; stroke-linejoin: miter; stroke-miterlimit: 4; fill: rgb(255,255,255); fill-rule: nonzero; opacity: 1;"  points="-13.6,24.3 13.5,7.7 13.6,-24.3 -13.5,-7.8 " />
</g>
		<g transform="matrix(1 0 0 1 -300.8 154.55)" id="Layer_1"  >
<polygon style="stroke: rgb(0,0,0); stroke-width: 0.1; stroke-dasharray: none; stroke-linecap: butt; stroke-dashoffset: 0; stroke-linejoin: miter; stroke-miterlimit: 4; fill: rgb(255,255,255); fill-rule: nonzero; opacity: 1;"  points="-14,20.85 13.9,3.85 14,-20.85 -14,-3.75 " />
</g>
		<g transform="matrix(1 0 0 1 -300.9 203.75)" id="Layer_1"  >
<polygon style="stroke: rgb(0,0,0); stroke-width: 0.1; stroke-dasharray: none; stroke-linecap: butt; stroke-dashoffset: 0; stroke-linejoin: miter; stroke-miterlimit: 4; fill: rgb(255,255,255); fill-rule: nonzero; opacity: 1;"  points="-13.9,20.75 13.7,3.95 13.9,-20.75 -13.9,-3.85 " />
</g>
		<g transform="matrix(1 0 0 1 -301.05 252.9)" id="Layer_1"  >
<polygon style="stroke: rgb(0,0,0); stroke-width: 0.1; stroke-dasharray: none; stroke-linecap: butt; stroke-dashoffset: 0; stroke-linejoin: miter; stroke-miterlimit: 4; fill: rgb(255,255,255); fill-rule: nonzero; opacity: 1;"  points="-13.75,20.7 13.65,4 13.75,-20.7 -13.75,-3.9 " />
</g>
		<g transform="matrix(1 0 0 1 -0.1 -75.75)" id="XMLID_475_"  >
<polygon style="stroke: rgb(0,0,0); stroke-width: 0.1; stroke-dasharray: none; stroke-linecap: butt; stroke-dashoffset: 0; stroke-linejoin: miter; stroke-miterlimit: 4; fill: rgb(255,255,255); fill-rule: nonzero; opacity: 1;"  points="-12.3,-0.95 -12.3,15.35 12.3,1.05 12.3,-15.35 " />
</g>
		<g transform="matrix(1 0 0 1 -0.1 -48.65)" id="XMLID_474_"  >
<polygon style="stroke: rgb(0,0,0); stroke-width: 0.1; stroke-dasharray: none; stroke-linecap: butt; stroke-dashoffset: 0; stroke-linejoin: miter; stroke-miterlimit: 4; fill: rgb(255,255,255); fill-rule: nonzero; opacity: 1;"  points="-12.3,15.35 12.3,0.95 12.3,-15.35 -12.3,-1.05 " />
</g>
		<g transform="matrix(1 0 0 1 -0.1 -21.65)" id="XMLID_473_"  >
<polygon style="stroke: rgb(0,0,0); stroke-width: 0.1; stroke-dasharray: none; stroke-linecap: butt; stroke-dashoffset: 0; stroke-linejoin: miter; stroke-miterlimit: 4; fill: rgb(255,255,255); fill-rule: nonzero; opacity: 1;"  points="-12.3,15.35 12.3,1.05 12.3,-15.35 -12.3,-0.95 " />
</g>
		<g transform="matrix(1 0 0 1 -0.1 5.45)" id="XMLID_472_"  >
<polygon style="stroke: rgb(0,0,0); stroke-width: 0.1; stroke-dasharray: none; stroke-linecap: butt; stroke-dashoffset: 0; stroke-linejoin: miter; stroke-miterlimit: 4; fill: rgb(255,255,255); fill-rule: nonzero; opacity: 1;"  points="-12.3,15.35 12.3,0.95 12.3,-15.35 -12.3,-1.05 " />
</g>
		<g transform="matrix(1 0 0 1 18.55 -86.65)" id="XMLID_466_"  >
<polygon style="stroke: rgb(0,0,0); stroke-width: 0.1; stroke-dasharray: none; stroke-linecap: butt; stroke-dashoffset: 0; stroke-linejoin: miter; stroke-miterlimit: 4; fill: rgb(255,255,255); fill-rule: nonzero; opacity: 1;"  points="-2.25,-6.85 -2.25,9.55 2.25,6.85 2.25,-9.55 " />
</g>
		<g transform="matrix(1 0 0 1 18.55 -59.6)" id="XMLID_465_"  >
<polygon style="stroke: rgb(0,0,0); stroke-width: 0.1; stroke-dasharray: none; stroke-linecap: butt; stroke-dashoffset: 0; stroke-linejoin: miter; stroke-miterlimit: 4; fill: rgb(255,255,255); fill-rule: nonzero; opacity: 1;"  points="-2.25,-6.8 -2.25,9.5 2.25,6.9 2.25,-9.5 " />
</g>
		<g transform="matrix(1 0 0 1 18.55 -32.55)" id="XMLID_458_"  >
<polygon style="stroke: rgb(0,0,0); stroke-width: 0.1; stroke-dasharray: none; stroke-linecap: butt; stroke-dashoffset: 0; stroke-linejoin: miter; stroke-miterlimit: 4; fill: rgb(255,255,255); fill-rule: nonzero; opacity: 1;"  points="-2.25,-6.85 -2.25,9.55 2.25,6.85 2.25,-9.55 " />
</g>
		<g transform="matrix(1 0 0 1 18.55 -5.5)" id="XMLID_457_"  >
<polygon style="stroke: rgb(0,0,0); stroke-width: 0.1; stroke-dasharray: none; stroke-linecap: butt; stroke-dashoffset: 0; stroke-linejoin: miter; stroke-miterlimit: 4; fill: rgb(255,255,255); fill-rule: nonzero; opacity: 1;"  points="-2.25,-6.8 -2.25,9.5 2.25,6.8 2.25,-9.5 " />
</g>
		<g transform="matrix(1 0 0 1 -131.28 118.72)" id="Layer_1"  >
<path style="stroke: rgb(0,0,0); stroke-width: 0.1; stroke-dasharray: none; stroke-linecap: butt; stroke-dashoffset: 0; stroke-linejoin: miter; stroke-miterlimit: 4; fill: rgb(255,255,255); fill-rule: nonzero; opacity: 1;"  transform=" translate(-368.72, -618.72)" d="M 433.7 462 c -38.3 22.8 -62.5 196.6 -95.7 217.6 c -29 18.4 -22.6 -159.4 -48.7 -164.1 c -25.8 -4.7 -42.5 193.8 -34.4 261.5 l 229.7 -132.1 C 484.5 644.9 469.5 440.7 433.7 462 z" stroke-linecap="round" />
</g>
		<g transform="matrix(1 0 0 1 -130.89 155.91)" id="Layer_1"  >
<path style="stroke: rgb(0,0,0); stroke-width: 0.1; stroke-dasharray: none; stroke-linecap: butt; stroke-dashoffset: 0; stroke-linejoin: miter; stroke-miterlimit: 4; fill: rgb(0,113,188); fill-rule: nonzero; opacity: 1;"  transform=" translate(-369.11, -655.91)" d="M 454.5 574.1 c -24.7 -7 -33 79.7 -55 75.6 c -31.3 -5.7 -21.8 -123.3 -48.3 -114.4 c -22.5 7.5 -28 124.3 -36.6 156.1 c -11.4 42.3 -14.7 -1.4 -31.3 -4.3 c -23.3 -4.2 -33.5 37.2 -28.2 89.9 l 229.4 -132.1 C 484.5 644.9 484.5 582.6 454.5 574.1 z" stroke-linecap="round" />
</g>
		<g transform="matrix(1 0 0 1 -130.65 186.23)" id="Layer_1"  >
<path style="stroke: rgb(0,0,0); stroke-width: 0.1; stroke-dasharray: none; stroke-linecap: butt; stroke-dashoffset: 0; stroke-linejoin: miter; stroke-miterlimit: 4; fill: rgb(255,102,166); fill-rule: nonzero; opacity: 1;"  transform=" translate(-369.35, -686.23)" d="M 451 610.5 c -34.9 21.6 -32.9 54.9 -61.7 71.9 c -27.4 16.2 -45.7 -97 -64.4 -86.1 c -28.3 16.3 -10.7 131.2 -27.2 140.9 c -14.7 8.7 -17.2 -28 -28.9 -20.7 c -19 11.9 -14 60.4 -14 60.4 l 229.7 -132.1 C 484.5 644.9 482.9 590.7 451 610.5 z" stroke-linecap="round" />
</g>
		<g transform="matrix(1 0 0 1 135.4 -208.8)" id="Layer_1"  >
<polygon style="stroke: rgb(0,0,0); stroke-width: 0.1; stroke-dasharray: none; stroke-linecap: butt; stroke-dashoffset: 0; stroke-linejoin: miter; stroke-miterlimit: 4; fill: rgb(255,255,255); fill-rule: nonzero; opacity: 1;"  points="-16.2,36.4 16,16.5 16.2,-36.4 -16.2,-16.4 " />
</g>
		<g transform="matrix(1 0 0 1 127.1 -157.65)" id="Layer_1"  >
<polygon style="stroke: rgb(0,0,0); stroke-width: 0.1; stroke-dasharray: none; stroke-linecap: butt; stroke-dashoffset: 0; stroke-linejoin: miter; stroke-miterlimit: 4; fill: rgb(255,255,255); fill-rule: nonzero; opacity: 1;"  points="-7.9,11.85 7.8,2.15 7.9,-11.85 -7.9,-2.15 " />
</g>
		<g transform="matrix(1 0 0 1 174.6 -234.1)" id="Layer_1"  >
<path style="stroke: rgb(0,0,0); stroke-width: 0.1; stroke-dasharray: none; stroke-linecap: butt; stroke-dashoffset: 0; stroke-linejoin: miter; stroke-miterlimit: 4; fill: rgb(255,255,255); fill-rule: nonzero; opacity: 1;"  transform=" translate(-674.6, -265.9)" d="M 678.4 254.5 l -7.5 4.6 c -2.1 1.3 -3.9 6.5 -3.9 11.5 c 0 5 1.7 8 3.8 6.7 l 7.5 -4.6 c 2.1 -1.3 3.9 -6.5 3.9 -11.5 C 682.3 256.2 680.5 253.2 678.4 254.5 z" stroke-linecap="round" />
</g>
		<g transform="matrix(1 0 0 1 197.1 -248)" id="Layer_1"  >
<polygon style="stroke: rgb(0,0,0); stroke-width: 0.1; stroke-dasharray: none; stroke-linecap: butt; stroke-dashoffset: 0; stroke-linejoin: miter; stroke-miterlimit: 4; fill: rgb(255,255,255); fill-rule: nonzero; opacity: 1;"  points="-7.6,13.8 7.5,4.4 7.6,-13.8 -7.6,-4.4 " />
</g>
		<g transform="matrix(1 0 0 1 216.85 -260.2)" id="Layer_1"  >
<polygon style="stroke: rgb(0,0,0); stroke-width: 0.1; stroke-dasharray: none; stroke-linecap: butt; stroke-dashoffset: 0; stroke-linejoin: miter; stroke-miterlimit: 4; fill: rgb(255,255,255); fill-rule: nonzero; opacity: 1;"  points="-7.65,13.8 7.55,4.4 7.65,-13.8 -7.55,-4.4 " />
</g>
		<g transform="matrix(1 0 0 1 236.65 -272.45)" id="Layer_1"  >
<polygon style="stroke: rgb(0,0,0); stroke-width: 0.1; stroke-dasharray: none; stroke-linecap: butt; stroke-dashoffset: 0; stroke-linejoin: miter; stroke-miterlimit: 4; fill: rgb(255,255,255); fill-rule: nonzero; opacity: 1;"  points="-7.65,13.75 7.55,4.45 7.65,-13.75 -7.55,-4.35 " />
</g>
		<g transform="matrix(1 0 0 1 127.05 -129.8)" id="Layer_1"  >
<polygon style="stroke: rgb(0,0,0); stroke-width: 0.1; stroke-dasharray: none; stroke-linecap: butt; stroke-dashoffset: 0; stroke-linejoin: miter; stroke-miterlimit: 4; fill: rgb(255,255,255); fill-rule: nonzero; opacity: 1;"  points="-7.85,11.8 7.75,2.2 7.85,-11.8 -7.85,-2.2 " />
</g>
		<g transform="matrix(1 0 0 1 126.95 -102)" id="Layer_1"  >
<polygon style="stroke: rgb(0,0,0); stroke-width: 0.1; stroke-dasharray: none; stroke-linecap: butt; stroke-dashoffset: 0; stroke-linejoin: miter; stroke-miterlimit: 4; fill: rgb(255,255,255); fill-rule: nonzero; opacity: 1;"  points="-7.75,11.8 7.75,2.2 7.75,-11.8 -7.75,-2.2 " />
</g>
		<g transform="matrix(1 0 0 1 126.9 -74.15)" id="Layer_1"  >
<polygon style="stroke: rgb(0,0,0); stroke-width: 0.1; stroke-dasharray: none; stroke-linecap: butt; stroke-dashoffset: 0; stroke-linejoin: miter; stroke-miterlimit: 4; fill: rgb(255,255,255); fill-rule: nonzero; opacity: 1;"  points="-7.7,11.75 7.7,2.25 7.7,-11.75 -7.7,-2.25 " />
</g>
		<g transform="matrix(1 0 0 1 313.95 -220.1)" id="XMLID_454_"  >
<polygon style="stroke: rgb(0,0,0); stroke-width: 0.1; stroke-dasharray: none; stroke-linecap: butt; stroke-dashoffset: 0; stroke-linejoin: miter; stroke-miterlimit: 4; fill: rgb(255,255,255); fill-rule: nonzero; opacity: 1;"  points="-10.65,-0.9 -10.65,13.7 10.65,0.9 10.65,-13.7 " />
</g>
		<g transform="matrix(1 0 0 1 313.95 -196)" id="XMLID_453_"  >
<polygon style="stroke: rgb(0,0,0); stroke-width: 0.1; stroke-dasharray: none; stroke-linecap: butt; stroke-dashoffset: 0; stroke-linejoin: miter; stroke-miterlimit: 4; fill: rgb(255,255,255); fill-rule: nonzero; opacity: 1;"  points="-10.65,13.7 10.65,0.9 10.65,-13.7 -10.65,-0.9 " />
</g>
		<g transform="matrix(1 0 0 1 313.95 -171.9)" id="XMLID_452_"  >
<polygon style="stroke: rgb(0,0,0); stroke-width: 0.1; stroke-dasharray: none; stroke-linecap: butt; stroke-dashoffset: 0; stroke-linejoin: miter; stroke-miterlimit: 4; fill: rgb(255,255,255); fill-rule: nonzero; opacity: 1;"  points="-10.65,13.7 10.65,0.9 10.65,-13.7 -10.65,-0.9 " />
</g>
		<g transform="matrix(1 0 0 1 313.95 -147.7)" id="XMLID_451_"  >
<polygon style="stroke: rgb(0,0,0); stroke-width: 0.1; stroke-dasharray: none; stroke-linecap: butt; stroke-dashoffset: 0; stroke-linejoin: miter; stroke-miterlimit: 4; fill: rgb(255,255,255); fill-rule: nonzero; opacity: 1;"  points="-10.65,13.7 10.65,0.9 10.65,-13.7 -10.65,-0.9 " />
</g>
		<g transform="matrix(1 0 0 1 330.1 -229.9)" id="XMLID_449_"  >
<polygon style="stroke: rgb(0,0,0); stroke-width: 0.1; stroke-dasharray: none; stroke-linecap: butt; stroke-dashoffset: 0; stroke-linejoin: miter; stroke-miterlimit: 4; fill: rgb(255,255,255); fill-rule: nonzero; opacity: 1;"  points="-2,-6.1 -2,8.5 2,6.1 2,-8.5 " />
</g>
		<g transform="matrix(1 0 0 1 330.1 -205.7)" id="XMLID_414_"  >
<polygon style="stroke: rgb(0,0,0); stroke-width: 0.1; stroke-dasharray: none; stroke-linecap: butt; stroke-dashoffset: 0; stroke-linejoin: miter; stroke-miterlimit: 4; fill: rgb(255,255,255); fill-rule: nonzero; opacity: 1;"  points="-2,8.5 2,6.1 2,-8.5 -2,-6.1 " />
</g>
		<g transform="matrix(1 0 0 1 330.1 -181.6)" id="XMLID_407_"  >
<polygon style="stroke: rgb(0,0,0); stroke-width: 0.1; stroke-dasharray: none; stroke-linecap: butt; stroke-dashoffset: 0; stroke-linejoin: miter; stroke-miterlimit: 4; fill: rgb(255,255,255); fill-rule: nonzero; opacity: 1;"  points="-2,8.5 2,6.1 2,-8.5 -2,-6.1 " />
</g>
		<g transform="matrix(1 0 0 1 330.1 -157.5)" id="XMLID_379_"  >
<polygon style="stroke: rgb(0,0,0); stroke-width: 0.1; stroke-dasharray: none; stroke-linecap: butt; stroke-dashoffset: 0; stroke-linejoin: miter; stroke-miterlimit: 4; fill: rgb(255,255,255); fill-rule: nonzero; opacity: 1;"  points="-2,-6.1 -2,8.5 2,6.2 2,-8.5 " />
</g>
		<g transform="matrix(1 0 0 1 276.7 -182.7)" id="Layer_1"  >
<polygon style="stroke: rgb(0,0,0); stroke-width: 0.1; stroke-dasharray: none; stroke-linecap: butt; stroke-dashoffset: 0; stroke-linejoin: miter; stroke-miterlimit: 4; fill: rgb(255,102,166); fill-rule: nonzero; opacity: 1;"  points="-10,-67.2 -9.8,78.6 10,67.1 9.8,-78.6 " />
</g>
		<g transform="matrix(1 0 0 1 251.6 -142.45)" id="Layer_1"  >
<polygon style="stroke: rgb(0,0,0); stroke-width: 0.1; stroke-dasharray: none; stroke-linecap: butt; stroke-dashoffset: 0; stroke-linejoin: miter; stroke-miterlimit: 4; fill: rgb(255,255,255); fill-rule: nonzero; opacity: 1;"  points="-10,-41.45 -9.8,52.85 10,41.35 9.9,-52.85 " />
</g>
		<g transform="matrix(1 0 0 1 226.45 -133.5)" id="Layer_1"  >
<polygon style="stroke: rgb(0,0,0); stroke-width: 0.1; stroke-dasharray: none; stroke-linecap: butt; stroke-dashoffset: 0; stroke-linejoin: miter; stroke-miterlimit: 4; fill: rgb(0,218,254); fill-rule: nonzero; opacity: 1;"  points="-9.95,-47 -9.85,58.4 9.95,46.9 9.85,-58.4 " />
</g>
		<g transform="matrix(1 0 0 1 201.35 -94.3)" id="Layer_1"  >
<polygon style="stroke: rgb(0,0,0); stroke-width: 0.1; stroke-dasharray: none; stroke-linecap: butt; stroke-dashoffset: 0; stroke-linejoin: miter; stroke-miterlimit: 4; fill: rgb(0,113,188); fill-rule: nonzero; opacity: 1;"  points="-9.95,-22 -9.85,33.4 9.95,22 9.85,-33.4 " />
</g>
</g>
</g>
<g transform="matrix(1.16 0 0 1.16 224.77 130.84)" style=""  >
		<text xml:space="preserve" font-family="Secular One" font-size="40" font-style="normal" font-weight="400" style="stroke: rgb(0,0,0); stroke-width: 0.1; stroke-dasharray: none; stroke-linecap: butt; stroke-dashoffset: 0; stroke-linejoin: miter; stroke-miterlimit: 4; fill: rgb(63,193,201); fill-rule: nonzero; opacity: 1; white-space: pre;" ><tspan x="-141.76" y="-13.65" style="white-space: pre; ">Welcome to </tspan><tspan x="-141.76" y="38.78" >Online Cashier</tspan></text>
</g>
</svg>